<?xml version="1.0" standalone="no"?>
<!DOCTYPE svg PUBLIC "-//W3C//DTD SVG 20010904//EN"
 "http://www.w3.org/TR/2001/REC-SVG-20010904/DTD/svg10.dtd">
<svg version="1.0" xmlns="http://www.w3.org/2000/svg"
 width="1500.000000pt" height="1500.000000pt" viewBox="0 0 1500.000000 1500.000000"
 preserveAspectRatio="xMidYMid meet">
<metadata>
Created by potrace 1.14, written by Peter Selinger 2001-2017
</metadata>
<g transform="translate(0.000000,1500.000000) scale(0.100000,-0.100000)"
fill="#000000" stroke="none">
<path d="M2519 11798 c-1 -2 -2 -2043 -3 -4535 l-1 -4533 1017 0 1018 0 2
2595 3 2595 125 -147 c266 -312 669 -784 720 -843 8 -10 34 -39 57 -66 161
-190 432 -507 467 -548 61 -72 75 -88 104 -121 15 -16 63 -73 107 -125 44 -52
82 -97 85 -100 3 -3 30 -34 60 -70 30 -36 65 -76 76 -90 12 -14 120 -140 240
-280 120 -140 245 -287 278 -326 34 -39 82 -95 107 -125 142 -168 199 -233
264 -306 l30 -34 122 148 c66 81 129 158 140 170 10 11 97 117 193 233 204
248 387 468 435 525 18 22 111 135 206 250 95 116 175 212 178 215 3 3 23 26
44 52 21 26 43 53 50 60 7 7 30 36 52 63 35 44 320 390 424 515 21 25 88 106
150 180 62 74 125 151 141 170 16 19 100 121 186 225 86 105 168 204 183 221
14 17 82 100 151 183 l125 152 3 -2685 2 -2686 1233 0 1232 0 -2 4527 c-1
2491 -2 4531 -2 4536 -1 4 -427 6 -948 5 l-947 -3 -378 -460 c-208 -253 -384
-467 -391 -475 -33 -39 -184 -225 -202 -248 -11 -15 -27 -34 -35 -42 -8 -9
-31 -36 -50 -60 -19 -24 -91 -112 -160 -195 -69 -83 -138 -168 -155 -189 -37
-47 -60 -75 -83 -101 -10 -11 -47 -56 -82 -100 -36 -44 -72 -89 -82 -100 -9
-11 -105 -128 -214 -260 -108 -132 -208 -254 -223 -271 -14 -18 -40 -49 -57
-70 -50 -61 -194 -237 -212 -259 -10 -11 -78 -94 -152 -185 -74 -91 -142 -174
-152 -185 -9 -11 -53 -65 -98 -120 -45 -55 -99 -120 -120 -145 -21 -25 -54
-64 -72 -87 -18 -23 -60 -76 -93 -117 -33 -41 -64 -75 -70 -75 -5 0 -52 53
-103 117 -50 64 -105 133 -121 152 -16 19 -93 114 -171 210 -78 96 -156 193
-174 215 -18 22 -55 67 -81 100 -27 33 -87 107 -134 165 -47 58 -220 272 -385
475 -165 204 -311 384 -325 401 -14 17 -33 40 -41 50 -16 21 -170 211 -339
419 -58 72 -110 135 -116 141 -12 14 -11 13 -160 199 -66 83 -122 152 -125
155 -3 3 -64 77 -135 165 -169 210 -298 369 -305 375 -3 3 -68 84 -145 180
-77 96 -151 187 -164 202 l-24 28 -989 0 c-543 0 -989 -1 -989 -2z"/>
</g>
</svg>
