<svg id="Layer_1" data-name="Layer 1" xmlns="http://www.w3.org/2000/svg" viewBox="0 0 545.86 186.9"><path d="M52.29,199.24h7l25.29,32.6L110,199.24h6.56V264.8h-8.05V212.26L83.85,243.17,59.59,212.35V264.8h-7.3Z" transform="translate(-29.61 -198.02)"/><path d="M202.66,249.63H168.84l-6.36,15.17h-8.06l28.47-65.56h6.37l28.38,65.56H209Zm-2.81-6.46L185.7,209.63l-14.14,33.54Z" transform="translate(-29.61 -198.02)"/><path d="M255.61,199.24h32.22c13.39,0,20.89,8.34,20.89,19.48,0,8.44-4.31,15.08-11.9,17.89l14.24,28.19h-9.18l-13.21-26.69h-25.1V264.8h-8Zm44.87,19.48c0-8-4.88-13-13.78-13H263.57v26H286.7C295.6,231.65,300.48,226.87,300.48,218.72Z" transform="translate(-29.61 -198.02)"/><path d="M351.27,199.24h8V264.8h-8Z" transform="translate(-29.61 -198.02)"/><path d="M431.94,266c-17.8,0-27.91-11.33-27.91-28V199.24h8.05v39.25c0,12.64,7.12,20.88,20.05,20.88s20.13-8.24,20.13-21.07V199.24h7.31v39C459.57,254.41,449.64,266,431.94,266Z" transform="translate(-29.61 -198.02)"/><path d="M527.6,266c-13,0-24.45-5.52-28.76-19.67l7.12-2.52c3.66,12.27,12.65,15.91,21.73,15.91,9.93,0,17.14-4.11,17.14-12.27,0-9.45-10.11-11.05-18.82-12.64-10.4-2-24.45-5.71-24.45-18.55,0-10.86,9.84-18.26,24.08-18.26,11.61,0,22,5,26.13,16.11L545,216.66c-3.47-9.18-10.86-12.46-19.38-12.46-9.75,0-16.12,4.41-16.12,11.06,0,8.52,10.4,9.93,19,11.43,9.92,1.77,24.25,5.33,24.25,19.85C552.79,259.18,541.84,266,527.6,266Z" transform="translate(-29.61 -198.02)"/><path d="M29.61,320.76H41.07l22.64,28.5,22.92-28.5H97.54v64.16h-14V342.21l-21.27,26-20.89-25.3v42H29.61Z" transform="translate(-29.61 -198.02)"/><path d="M179.93,372.82H151.15L146,384.92H133l28.51-64.16H172l28.41,64.16h-15.3Zm-4.22-10-10.17-24.2-10.27,24.2Z" transform="translate(-29.61 -198.02)"/><path d="M235.93,320.76h10.45L281,360.81V320.76h11.82v64.16h-8.62l-36.57-41.61v41.61H235.93Z" transform="translate(-29.61 -198.02)"/><path d="M395.23,352.84c0,19.43-13.84,32.08-35.1,32.08H335.56V320.76h24.57C381.67,320.76,395.23,333.49,395.23,352.84Zm-35.1,21.81c12.46,0,20.53-7.33,20.53-21.81,0-14.3-7.79-21.82-20.53-21.82H349.58v43.63Z" transform="translate(-29.61 -198.02)"/><path d="M470.88,372.82H442.11L437,384.92H424l28.51-64.16h10.45l28.42,64.16H476Zm-4.21-10-10.17-24.2-10.27,24.2Z" transform="translate(-29.61 -198.02)"/><path d="M526.89,320.76h14v53.89h34.55v10.27H526.89Z" transform="translate(-29.61 -198.02)"/></svg>