<?xml version="1.0" encoding="utf-8"?>
<!-- Generator: Adobe Illustrator 26.0.2, SVG Export Plug-In . SVG Version: 6.00 Build 0)  -->
<svg version="1.1" id="Layer_1" xmlns="http://www.w3.org/2000/svg" xmlns:xlink="http://www.w3.org/1999/xlink" x="0px" y="0px"
	 viewBox="0 0 545.9 186.9" style="enable-background:new 0 0 545.9 186.9;" xml:space="preserve">
<path d="M1.2,0.9h7l25.3,32.6L58.9,0.9h6.6v65.6h-8V14L32.7,44.9L8.5,14.1v52.4H1.2V0.9z"/>
<path d="M151.6,51.3h-33.8l-6.4,15.2h-8.1l28.5-65.6h6.4l28.4,65.6h-8.6L151.6,51.3z M148.7,44.9l-14.2-33.5l-14.1,33.5L148.7,44.9z
	"/>
<path d="M204.5,0.9h32.2c13.4,0,20.9,8.3,20.9,19.5c0,8.4-4.3,15.1-11.9,17.9L260,66.5h-9.2l-13.2-26.7h-25.1v26.7h-8L204.5,0.9z
	 M249.4,20.4c0-8-4.9-13-13.8-13h-23.1v26h23.1C244.5,33.3,249.4,28.6,249.4,20.4z"/>
<path d="M300.2,0.9h8v65.6h-8V0.9z"/>
<path d="M380.8,67.7c-17.8,0-27.9-11.3-27.9-28V0.9h8v39.2c0,12.6,7.1,20.9,20,20.9s20.1-8.2,20.1-21.1V0.9h7.3v39
	C408.5,56.1,398.5,67.7,380.8,67.7z"/>
<path d="M476.5,67.7c-13,0-24.5-5.5-28.8-19.7l7.1-2.5c3.7,12.3,12.7,15.9,21.7,15.9c9.9,0,17.1-4.1,17.1-12.3
	c0-9.4-10.1-11.1-18.8-12.6c-10.4-2-24.5-5.7-24.5-18.6c0-10.9,9.8-18.3,24.1-18.3c11.6,0,22,5,26.1,16.1l-6.8,2.6
	C490.4,9.2,483,5.9,474.5,5.9c-9.8,0-16.1,4.4-16.1,11.1c0,8.5,10.4,9.9,19,11.4c9.9,1.8,24.2,5.3,24.2,19.9
	C501.7,60.9,490.7,67.7,476.5,67.7z"/>
<path d="M0,122.7h11.5l22.6,28.5L57,122.7h10.9v64.2h-14v-42.7l-21.3,26l-20.9-25.3v42H0V122.7z"/>
<path d="M150.3,174.8h-28.8l-5.1,12.1h-13l28.5-64.2h10.5l28.4,64.2h-15.3L150.3,174.8z M146.1,164.8l-10.2-24.2l-10.3,24.2H146.1z"
	/>
<path d="M206.3,122.7h10.4l34.6,40v-40h11.8v64.2h-8.6L218,145.3v41.6h-11.7V122.7z"/>
<path d="M365.6,154.8c0,19.4-13.8,32.1-35.1,32.1H306v-64.2h24.6C352.1,122.7,365.6,135.5,365.6,154.8z M330.5,176.6
	c12.5,0,20.5-7.3,20.5-21.8c0-14.3-7.8-21.8-20.5-21.8H320v43.6H330.5z"/>
<path d="M441.3,174.8h-28.8l-5.1,12.1h-13l28.5-64.2h10.5l28.4,64.2h-15.4L441.3,174.8z M437.1,164.8l-10.2-24.2l-10.3,24.2H437.1z"
	/>
<path d="M497.3,122.7h14v53.9h34.5v10.3h-48.5V122.7z"/>
</svg>
